<?xml version="1.0" encoding="UTF-8" standalone="no"?>
<svg
   id="Icons"
   viewBox="0 0 1024 1024.4499"
   version="1.1"
   sodipodi:docname="icon_paused_inverse.svg"
   width="1024"
   height="1024.45"
   inkscape:version="1.4 (e7c3feb1, 2024-10-09)"
   xmlns:inkscape="http://www.inkscape.org/namespaces/inkscape"
   xmlns:sodipodi="http://sodipodi.sourceforge.net/DTD/sodipodi-0.dtd"
   xmlns="http://www.w3.org/2000/svg"
   xmlns:svg="http://www.w3.org/2000/svg">
  <defs
     id="defs7" />
  <sodipodi:namedview
     id="namedview7"
     pagecolor="#ffffff"
     bordercolor="#000000"
     borderopacity="0.25"
     inkscape:showpageshadow="2"
     inkscape:pageopacity="0.0"
     inkscape:pagecheckerboard="0"
     inkscape:deskcolor="#d1d1d1"
     inkscape:zoom="0.23314181"
     inkscape:cx="51.470819"
     inkscape:cy="360.29574"
     inkscape:window-width="1472"
     inkscape:window-height="895"
     inkscape:window-x="0"
     inkscape:window-y="33"
     inkscape:window-maximized="1"
     inkscape:current-layer="Icons" />
  <path
     id="path1"
     d="m 269.51172,123.08398 c -47.194,0 -92.89753,35.29453 -128.69922,99.3711 -38.688,69.23024 -60,161.88609 -60,260.88476 0,1.51106 0.05063,3.00564 0.06055,4.51368 a 25.502399,25.502399 0 0 1 16.978515,-9.74805 25.502399,25.502399 0 0 1 13.050775,1.99414 c 0,0 4.93474,2.59229 28.81836,6.41992 23.88362,3.82763 64.23327,7.81898 127.57422,7.61719 63.48232,-0.20218 104.96216,-4.00499 130.07227,-7.60742 25.11011,-3.60243 31.88086,-6.30078 31.88086,-6.30078 a 25.502399,25.502399 0 0 1 28.89062,8.51757 c 0.0142,-1.80539 0.0723,-3.59653 0.0723,-5.40625 0,-98.98007 -21.312,-191.63592 -60,-260.88476 -35.78258,-64.07657 -81.50521,-99.3711 -128.69922,-99.3711 z M 81.806641,520.18945 c 4.614433,84.98087 25.161419,163.47159 59.005859,224.05078 35.78258,64.07658 81.50522,99.3711 128.69922,99.3711 47.19401,0 92.89753,-35.29452 128.69922,-99.3711 33.75342,-60.41628 54.27151,-138.66631 58.95898,-223.375 a 25.502399,25.502399 0 0 1 -10.60937,7.33985 c 0,0 -14.02923,4.80667 -41.95117,8.8125 -27.92194,4.00583 -71.70604,7.91462 -137.1504,8.12304 -65.54605,0.20882 -108.55576,-3.89187 -135.81054,-8.25976 -27.25478,-4.3679 -41.236331,-10.07422 -41.236331,-10.07422 a 25.502399,25.502399 0 0 1 -8.605468,-6.61719 z" />
  <path
     id="path4"
     d="m 754.48828,126.19141 c -47.19401,0 -92.89753,35.29452 -128.69922,99.37109 -38.688,69.23024 -60,161.90273 -60,260.88281 0,4.80413 0.0934,9.5792 0.19336,14.35157 a 25.502399,25.502399 0 0 1 1.98633,-7.5879 25.502399,25.502399 0 0 1 20.54883,-15.10351 25.502399,25.502399 0 0 1 13.04883,1.99414 c 0,0 4.93474,2.59229 28.81836,6.41992 23.88361,3.82763 64.23522,7.81898 127.57617,7.61719 63.48232,-0.20218 104.9602,-4.00499 130.07031,-7.60742 25.11011,-3.60243 31.88281,-6.30078 31.88281,-6.30078 a 25.502399,25.502399 0 0 1 23.23242,3.12695 C 942.70614,385.54237 921.47122,294.08771 883.1875,225.5625 847.40492,161.48593 801.68228,126.19141 754.48828,126.19141 Z M 565.99414,501.74219 c 2.08109,93.19551 23.10838,179.92151 59.79492,245.58789 35.78258,64.07657 81.50521,99.36914 128.69922,99.36914 47.194,0 92.89753,-35.29257 128.69922,-99.36914 33.50098,-59.94832 53.94264,-137.48853 58.83008,-221.4668 a 25.502399,25.502399 0 0 1 -4.79102,2.3418 c 0,0 -14.02923,4.80667 -41.95117,8.8125 -27.92194,4.00583 -71.70799,7.91462 -137.15234,8.12304 -65.54606,0.20882 -108.55382,-3.89187 -135.8086,-8.25976 -27.25478,-4.3679 -41.23633,-10.07422 -41.23633,-10.07422 a 25.502399,25.502399 0 0 1 -15.08398,-25.06445 z" />
  <path
     d="m 430.59083,911.91151 c 0,0 18.23535,32.33598 80.35787,31.53595 62.14165,-0.80003 82.19289,-30.04752 82.19289,-30.04752"
     fill="none"
     stroke="#000000"
     stroke-linecap="round"
     stroke-miterlimit="10"
     stroke-width="49.4274"
     id="path7" />
</svg>
