<?xml version="1.0" encoding="UTF-8" standalone="no"?>
<svg
   id="Icons"
   viewBox="0 0 580 579.99999"
   version="1.1"
   sodipodi:docname="icon_paused_inverse.svg"
   width="580"
   height="580"
   inkscape:version="1.4 (e7c3feb1, 2024-10-09)"
   xmlns:inkscape="http://www.inkscape.org/namespaces/inkscape"
   xmlns:sodipodi="http://sodipodi.sourceforge.net/DTD/sodipodi-0.dtd"
   xmlns="http://www.w3.org/2000/svg"
   xmlns:svg="http://www.w3.org/2000/svg">
  <defs
     id="defs5" />
  <sodipodi:namedview
     id="namedview5"
     pagecolor="#ffffff"
     bordercolor="#000000"
     borderopacity="0.25"
     inkscape:showpageshadow="2"
     inkscape:pageopacity="0.0"
     inkscape:pagecheckerboard="0"
     inkscape:deskcolor="#d1d1d1"
     inkscape:zoom="0.77729696"
     inkscape:cx="355.07665"
     inkscape:cy="389.81241"
     inkscape:window-width="1408"
     inkscape:window-height="895"
     inkscape:window-x="336"
     inkscape:window-y="33"
     inkscape:window-maximized="0"
     inkscape:current-layer="Icons" />
  <path
     d="m 247.41,510.16374 c 0,0 9.54,17.38 42.04,16.95 32.51,-0.43 43,-16.15 43,-16.15"
     fill="none"
     stroke="#000000"
     stroke-linecap="round"
     stroke-miterlimit="10"
     stroke-width="26.21"
     id="path5" />
  <path
     id="path2-39"
     style="stroke:#000000;stroke-width:13.374;stroke-linecap:round;stroke-linejoin:round"
     d="M 171.70203,85.624053 A 99.76065,194.62006 0 0 0 71.942771,280.24508 99.76065,194.62006 0 0 0 171.70203,474.86419 99.76065,194.62006 0 0 0 271.46311,280.24508 99.76065,194.62006 0 0 0 171.70203,85.624053 Z M 92.876041,267.40754 a 15.304705,20.035102 0 0 1 7.451189,3.51708 c 0,0 -0.584459,-0.36513 1.22265,0.68042 1.80711,1.04557 5.16531,2.73375 10.49866,4.50851 10.66671,3.54951 29.24641,7.43201 58.90489,7.23581 29.7836,-0.19695 48.99303,-3.89823 60.349,-7.28105 11.35598,-3.38286 13.38323,-5.33028 13.38323,-5.33028 a 15.304705,20.035102 0 0 1 20.88568,7.4375 15.304705,20.035102 0 0 1 -5.68129,27.34123 c 0,0 -7.88101,5.47704 -21.79533,9.622 -13.91434,4.14495 -35.33634,8.07261 -66.98753,8.28191 -31.75748,0.21007 -52.89826,-3.91295 -66.59952,-8.47226 -6.850629,-2.27967 -11.838309,-4.67236 -15.330689,-6.693 -3.49238,-2.02064 -6.33104,-4.43876 -6.33104,-4.43876 a 15.304705,20.035102 0 0 1 -3.82352,-27.8897 15.304705,20.035102 0 0 1 13.85362,-8.51941 z" />
  <path
     id="path2-8"
     style="stroke:#000000;stroke-width:13.374;stroke-linecap:round;stroke-linejoin:round"
     d="M 409.85245,86.897331 A 99.76065,194.62006 0 0 0 310.09319,281.51836 99.76065,194.62006 0 0 0 409.85245,476.13747 99.76065,194.62006 0 0 0 509.61353,281.51836 99.76065,194.62006 0 0 0 409.85245,86.897331 Z M 331.02646,268.68082 a 15.304705,20.035102 0 0 1 7.45119,3.51708 c 0,0 -0.58446,-0.36513 1.22265,0.68042 1.80711,1.04557 5.16531,2.73375 10.49866,4.50851 10.66671,3.54951 29.24641,7.43201 58.90489,7.23581 29.7836,-0.19695 48.99303,-3.89823 60.349,-7.28105 11.35598,-3.38286 13.38323,-5.33028 13.38323,-5.33028 a 15.304705,20.035102 0 0 1 20.88568,7.4375 15.304705,20.035102 0 0 1 -5.68129,27.34123 c 0,0 -7.88101,5.47704 -21.79533,9.622 -13.91434,4.14495 -35.33634,8.07261 -66.98753,8.28191 -31.75748,0.21007 -52.89826,-3.91295 -66.59952,-8.47226 -6.85063,-2.27967 -11.83831,-4.67236 -15.33069,-6.693 -3.49238,-2.02064 -6.33104,-4.43876 -6.33104,-4.43876 a 15.304705,20.035102 0 0 1 -3.82352,-27.8897 15.304705,20.035102 0 0 1 13.85362,-8.51941 z" />
</svg>
