<?xml version="1.0" encoding="UTF-8" standalone="no"?>
<svg
   id="Icons"
   viewBox="0 0 580 579.99999"
   version="1.1"
   sodipodi:docname="icon_recording_inverse.svg"
   width="580"
   height="580"
   inkscape:version="1.4 (e7c3feb1, 2024-10-09)"
   xmlns:inkscape="http://www.inkscape.org/namespaces/inkscape"
   xmlns:sodipodi="http://sodipodi.sourceforge.net/DTD/sodipodi-0.dtd"
   xmlns="http://www.w3.org/2000/svg"
   xmlns:svg="http://www.w3.org/2000/svg">
  <defs
     id="defs5" />
  <sodipodi:namedview
     id="namedview5"
     pagecolor="#ffffff"
     bordercolor="#000000"
     borderopacity="0.25"
     inkscape:showpageshadow="2"
     inkscape:pageopacity="0.0"
     inkscape:pagecheckerboard="0"
     inkscape:deskcolor="#d1d1d1"
     inkscape:zoom="0.7955652"
     inkscape:cx="289.10264"
     inkscape:cy="392.17402"
     inkscape:window-width="1472"
     inkscape:window-height="895"
     inkscape:window-x="0"
     inkscape:window-y="33"
     inkscape:window-maximized="0"
     inkscape:current-layer="Icons" />
  <path
     d="m 247.41,510.16374 c 0,0 9.54,17.38 42.04,16.95 32.51,-0.43 43,-16.15 43,-16.15"
     fill="none"
     stroke="#000000"
     stroke-linecap="round"
     stroke-miterlimit="10"
     stroke-width="26.21"
     id="path5" />
  <path
     id="path13"
     style="fill:#000000;stroke:none;stroke-width:10.7099;stroke-linecap:round;stroke-linejoin:round;stroke-opacity:1;fill-opacity:1"
     d="M 163.40625 78.287109 A 106.48732 201.38841 0 0 0 56.917969 279.67578 A 106.48732 201.38841 0 0 0 163.40625 481.06445 A 106.48732 201.38841 0 0 0 269.89258 279.67578 A 106.48732 201.38841 0 0 0 163.40625 78.287109 z M 217.81055 246.33398 A 34.099998 35.150002 0 0 1 251.91016 281.48438 A 34.099998 35.150002 0 0 1 217.81055 316.63281 A 34.099998 35.150002 0 0 1 183.71094 281.48438 A 34.099998 35.150002 0 0 1 217.81055 246.33398 z " />
  <path
     id="path13-7"
     style="fill:#000000;stroke:none;stroke-width:10.7099;stroke-linecap:round;stroke-linejoin:round;stroke-opacity:1;fill-opacity:1"
     d="M 416.8611,78.287109 A 106.48732,201.38841 0 0 0 310.37282,279.67578 106.48732,201.38841 0 0 0 416.8611,481.06445 106.48732,201.38841 0 0 0 523.34743,279.67578 106.48732,201.38841 0 0 0 416.8611,78.287109 Z m 54.4043,168.046871 a 34.099998,35.150002 0 0 1 34.09961,35.1504 34.099998,35.150002 0 0 1 -34.09961,35.14843 34.099998,35.150002 0 0 1 -34.09961,-35.14843 34.099998,35.150002 0 0 1 34.09961,-35.1504 z" />
</svg>
