<?xml version="1.0" encoding="UTF-8" standalone="no"?>
<svg
   id="Icons"
   viewBox="0 0 1024 1024.4499"
   version="1.1"
   sodipodi:docname="icon_recording_inverse.svg"
   width="1024"
   height="1024.45"
   inkscape:version="1.4 (e7c3feb1, 2024-10-09)"
   xmlns:inkscape="http://www.inkscape.org/namespaces/inkscape"
   xmlns:sodipodi="http://sodipodi.sourceforge.net/DTD/sodipodi-0.dtd"
   xmlns="http://www.w3.org/2000/svg"
   xmlns:svg="http://www.w3.org/2000/svg">
  <defs
     id="defs7" />
  <sodipodi:namedview
     id="namedview7"
     pagecolor="#ffffff"
     bordercolor="#000000"
     borderopacity="0.25"
     inkscape:showpageshadow="2"
     inkscape:pageopacity="0.0"
     inkscape:pagecheckerboard="0"
     inkscape:deskcolor="#d1d1d1"
     inkscape:zoom="0.23314181"
     inkscape:cx="51.470819"
     inkscape:cy="364.58497"
     inkscape:window-width="1472"
     inkscape:window-height="895"
     inkscape:window-x="0"
     inkscape:window-y="33"
     inkscape:window-maximized="1"
     inkscape:current-layer="Icons" />
  <path
     id="path1"
     d="m 269.51172,123.08398 c -47.194,0 -92.89753,35.29453 -128.69922,99.3711 -38.688,69.23024 -60,161.88609 -60,260.88476 0,98.99868 21.312,191.65155 60,260.90039 35.78258,64.07658 81.50522,99.3711 128.69922,99.3711 47.19401,0 92.89753,-35.29452 128.69922,-99.3711 38.688,-69.24884 60,-161.92031 60,-260.90039 0,-98.98007 -21.312,-191.63592 -60,-260.88476 -35.78258,-64.07657 -81.50521,-99.3711 -128.69922,-99.3711 z m 104.5,297.96485 a 65.180862,65.397552 0 0 1 65.18164,65.39648 65.180862,65.397552 0 0 1 -65.18164,65.39844 65.180862,65.397552 0 0 1 -65.18164,-65.39844 65.180862,65.397552 0 0 1 65.18164,-65.39648 z" />
  <path
     id="path4"
     d="m 754.48828,126.19141 c -47.19401,0 -92.89753,35.29452 -128.69922,99.37109 -38.688,69.23024 -60,161.90273 -60,260.88281 0,98.98007 21.312,191.63593 60,260.88477 35.78258,64.07657 81.50521,99.36914 128.69922,99.36914 47.194,0 92.89753,-35.29257 128.69922,-99.36914 38.688,-69.23024 60,-161.9047 60,-260.88477 0,-98.98008 -21.312,-191.63397 -60,-260.88281 -35.78258,-64.07657 -81.50522,-99.37109 -128.69922,-99.37109 z m 104.5,297.96484 a 65.180862,65.397552 0 0 1 65.17969,65.39648 65.180862,65.397552 0 0 1 -65.17969,65.39844 65.180862,65.397552 0 0 1 -65.18164,-65.39844 65.180862,65.397552 0 0 1 65.18164,-65.39648 z" />
  <path
     d="m 430.59083,911.91151 c 0,0 18.23535,32.33598 80.35787,31.53595 62.14165,-0.80003 82.19289,-30.04752 82.19289,-30.04752"
     fill="none"
     stroke="#000000"
     stroke-linecap="round"
     stroke-miterlimit="10"
     stroke-width="49.4274"
     id="path7" />
</svg>
