<svg xmlns="http://www.w3.org/2000/svg" width="512" height="512" viewBox="0 0 512 512">
  <path d="m 153.91307,449.65626 c -1.6812,-0.75356 -9.06055,-6.20415 -16.39855,-12.11243 C 96.391317,404.43301 55.795436,361.9074 32.035607,327.051 23.511879,314.54642 21.964288,311.09773 21.964288,304.60779 c 0,-15.31392 15.684838,-52.31839 33.947721,-80.0912 15.428491,-23.46248 17.459269,-24.60372 52.659591,-29.59313 40.74848,-5.77582 40.88254,-5.77043 47.61,1.91328 4.44053,5.07171 11.35233,16.42523 13.84539,22.74282 3.75424,9.51353 1.45192,17.45419 -6.01887,20.75887 -3.57005,1.57921 -4.9959,2.98748 -6.70406,6.62143 -2.19318,4.6658 -6.4571,7.55929 -13.19637,8.95503 -1.73747,0.35984 -3.12105,1.63521 -3.95308,3.64392 -3.11547,7.52142 -13.43644,11.4525 -24.61181,9.37422 -6.44195,-1.198 -10.75528,-3.36088 -11.72094,-5.87735 -1.18986,-3.10075 0.71486,-6.54065 4.76604,-8.6074 4.26263,-2.17463 4.58321,-2.68151 3.13853,-4.96239 -0.68105,-1.07525 -2.40915,-1.24765 -7.37149,-0.73543 -3.58435,0.36999 -8.040602,0.21006 -9.968765,-0.35776 -2.34875,-0.69168 -3.892805,-0.68993 -4.730573,0.005 -3.246816,2.69462 -13.302801,42.14166 -11.361636,44.56874 0.580656,0.726 1.610906,1.10696 2.289449,0.84659 2.561518,-0.98295 17.214323,1.58197 23.567845,4.12545 14.76813,5.91209 29.64595,20.45444 41.24532,40.31531 2.2117,3.78696 4.38792,6.88539 4.83603,6.88539 0.44811,0 3.96995,-3.7827 7.82631,-8.406 51.12593,-61.2934 111.25335,-121.95693 162.44585,-163.89399 50.18933,-41.11527 101.80859,-75.73549 144.56411,-96.956859 13.39588,-6.648944 17.62002,-8.29541 21.39709,-8.340079 4.36945,-0.05166 4.72882,0.140813 5.02316,2.690481 0.26646,2.308207 -1.11468,4.088038 -8.66073,11.160839 -17.77908,16.664051 -59.33713,58.777078 -74.25596,75.247608 -35.35823,39.03579 -59.09605,67.52492 -127.77138,153.34588 -54.54026,68.15688 -64.44248,80.27084 -84.12084,102.90986 -18.34882,21.10943 -32.15241,35.29138 -35.85603,36.83884 -3.85583,1.61107 -3.12028,1.61955 -6.91112,-0.0796 z" style="display:inline;fill:#ffb623;fill-opacity:1;stroke:none;stroke-width:5.09455;stroke-dasharray:none;stroke-opacity:1"/>
</svg>
